{
  "source": "C:\\Users\\Peter\\Desktop\\stuff\\MIUN\\quantitative_research\\video_compression\\videos\\BVI-HD\\PaintingTilting_1920x1080_60fps.mp4",
  "output": "C:\\Users\\Peter\\Desktop\\stuff\\MIUN\\quantitative_research\\video_compression\\compressed_videos\\BVI-HD\\vp9\\12\\PaintingTilting_1920x1080_60fps_vp9.webm",
  "codec": "vp9",
  "ok": "Input #0, mov,mp4,m4a,3gp,3g2,mj2, from 'C:\\Users\\Peter\\Desktop\\stuff\\MIUN\\quantitative_research\\video_compression\\videos\\BVI-HD\\PaintingTilting_1920x1080_60fps.mp4':\n  Metadata:\n    major_brand     : isom\n    minor_version   : 512\n    compatible_brands: isomiso2avc1mp41\n    encoder         : Lavf54.28.101\n  Duration: 00:00:05.00, start: 0.000000, bitrate: 667707 kb/s\n  Stream #0:0[0x1](und): Video: h264 (High 4:4:4 Predictive) (avc1 / 0x31637661), yuv420p(progressive), 1920x1080, 667702 kb/s, 60 fps, 60 tbr, 60 tbn (default)\n    Metadata:\n      handler_name    : VideoHandler\n      vendor_id       : [0][0][0][0]\n[out#0/webm @ 00000159e5cf9480] Codec AVOption b:a (set bitrate (in bits/s)) has not been used for any stream. The most likely reason is either wrong type (e.g. a video option with no video streams) or that it is a private option of some decoder which was not actually used for any stream.\nStream mapping:\n  Stream #0:0 -> #0:0 (h264 (native) -> vp9 (libvpx-vp9))\nPress [q] to stop, [?] for help\n[libvpx-vp9 @ 00000159e5d0b700] v1.15.2-100-g40561f514\nOutput #0, webm, to 'C:\\Users\\Peter\\Desktop\\stuff\\MIUN\\quantitative_research\\video_compression\\compressed_videos\\BVI-HD\\vp9\\12\\PaintingTilting_1920x1080_60fps_vp9.webm':\n  Metadata:\n    major_brand     : isom\n    minor_version   : 512\n    compatible_brands: isomiso2avc1mp41\n    encoder         : Lavf62.3.100\n  Stream #0:0(und): Video: vp9, yuv420p(tv, progressive), 1920x1080, q=2-31, 12000 kb/s, 60 fps, 1k tbn (default)\n    Metadata:\n      encoder         : Lavc62.11.100 libvpx-vp9\n      handler_name    : VideoHandler\n      vendor_id       : [0][0][0][0]\n    Side data:\n      cpb: bitrate max/min/avg: 0/0/0 buffer size: 12000000 vbv_delay: N/A\nframe=    0 fps=0.0 q=0.0 size=       0KiB time=N/A bitrate=N/A speed=N/A elapsed=0:00:00.50    \nframe=    1 fps=0.9 q=12.0 size=       1KiB time=00:00:00.01 bitrate= 303.8kbits/s speed=0.0158x elapsed=0:00:01.05    \nframe=    4 fps=2.5 q=36.0 size=       1KiB time=00:00:00.06 bitrate=  76.0kbits/s speed=0.0413x elapsed=0:00:01.61    \nframe=    7 fps=3.3 q=34.0 size=       1KiB time=00:00:00.11 bitrate=  43.4kbits/s speed=0.0548x elapsed=0:00:02.12    \nframe=   10 fps=3.8 q=29.0 size=       1KiB time=00:00:00.16 bitrate=  30.4kbits/s speed=0.0631x elapsed=0:00:02.64    \nframe=   12 fps=3.8 q=30.0 size=       1KiB time=00:00:00.20 bitrate=  25.3kbits/s speed=0.063x elapsed=0:00:03.17    \nframe=   15 fps=4.0 q=28.0 size=       1KiB time=00:00:00.25 bitrate=  20.3kbits/s speed=0.0674x elapsed=0:00:03.71    \nframe=   18 fps=4.2 q=29.0 size=       1KiB time=00:00:00.28 bitrate=  17.9kbits/s speed=0.0667x elapsed=0:00:04.24    \nframe=   20 fps=4.2 q=29.0 size=       1KiB time=00:00:00.33 bitrate=  15.2kbits/s speed=0.0694x elapsed=0:00:04.80    \nframe=   22 fps=4.1 q=30.0 size=       1KiB time=00:00:00.36 bitrate=  13.8kbits/s speed=0.0688x elapsed=0:00:05.32    \nframe=   24 fps=4.1 q=29.0 size=       1KiB time=00:00:00.40 bitrate=  12.7kbits/s speed=0.0681x elapsed=0:00:05.87    \nframe=   26 fps=4.0 q=30.0 size=       1KiB time=00:00:00.43 bitrate=  11.7kbits/s speed=0.0675x elapsed=0:00:06.42    \nframe=   29 fps=4.2 q=29.0 size=       1KiB time=00:00:00.48 bitrate=  10.5kbits/s speed=0.0692x elapsed=0:00:06.98    \nframe=   31 fps=4.1 q=29.0 size=       1KiB time=00:00:00.51 bitrate=   9.8kbits/s speed=0.0685x elapsed=0:00:07.54    \nframe=   33 fps=4.1 q=30.0 size=       1KiB time=00:00:00.55 bitrate=   9.2kbits/s speed=0.0679x elapsed=0:00:08.09    \nframe=   36 fps=4.2 q=30.0 size=       1KiB time=00:00:00.60 bitrate=   8.4kbits/s speed=0.0696x elapsed=0:00:08.61    \nframe=   38 fps=4.1 q=28.0 size=       1KiB time=00:00:00.63 bitrate=   8.0kbits/s speed=0.069x elapsed=0:00:09.17    \nframe=   40 fps=4.1 q=28.0 size=       1KiB time=00:00:00.66 bitrate=   7.6kbits/s speed=0.0686x elapsed=0:00:09.71    \nframe=   43 fps=4.2 q=29.0 size=       1KiB time=00:00:00.71 bitrate=   7.1kbits/s speed=0.0698x elapsed=0:00:10.26    \nframe=   45 fps=4.2 q=30.0 size=       1KiB time=00:00:00.75 bitrate=   6.8kbits/s speed=0.0694x elapsed=0:00:10.80    \nframe=   48 fps=4.2 q=29.0 size=       1KiB time=00:00:00.80 bitrate=   6.3kbits/s speed=0.0706x elapsed=0:00:11.33    \nframe=   50 fps=4.2 q=30.0 size=       1KiB time=00:00:00.83 bitrate=   6.1kbits/s speed=0.0702x elapsed=0:00:11.87    \nframe=   52 fps=4.2 q=29.0 size=       1KiB time=00:00:00.86 bitrate=   5.8kbits/s speed=0.0698x elapsed=0:00:12.41    \nframe=   54 fps=4.2 q=29.0 size=       1KiB time=00:00:00.90 bitrate=   5.6kbits/s speed=0.0695x elapsed=0:00:12.95    \nframe=   57 fps=4.2 q=30.0 size=       1KiB time=00:00:00.95 bitrate=   5.3kbits/s speed=0.0705x elapsed=0:00:13.46    \nframe=   59 fps=4.2 q=30.0 size=       1KiB time=00:00:00.98 bitrate=   5.1kbits/s speed=0.0702x elapsed=0:00:14.01    \nframe=   61 fps=4.2 q=19.0 size=       1KiB time=00:00:01.01 bitrate=   5.0kbits/s speed=0.07x elapsed=0:00:14.53    \nframe=   63 fps=4.2 q=29.0 size=       1KiB time=00:00:01.05 bitrate=   4.8kbits/s speed=0.0697x elapsed=0:00:15.05    \nframe=   65 fps=4.2 q=29.0 size=       1KiB time=00:00:01.08 bitrate=   4.7kbits/s speed=0.0696x elapsed=0:00:15.56    \nframe=   68 fps=4.2 q=29.0 size=       1KiB time=00:00:01.13 bitrate=   4.5kbits/s speed=0.0705x elapsed=0:00:16.07    \nframe=   70 fps=4.2 q=30.0 size=       1KiB time=00:00:01.16 bitrate=   4.3kbits/s speed=0.0702x elapsed=0:00:16.60    \nframe=   72 fps=4.2 q=31.0 size=       1KiB time=00:00:01.20 bitrate=   4.2kbits/s speed=0.07x elapsed=0:00:17.14    \nframe=   74 fps=4.2 q=30.0 size=       1KiB time=00:00:01.23 bitrate=   4.1kbits/s speed=0.0697x elapsed=0:00:17.68    \nframe=   76 fps=4.2 q=31.0 size=       1KiB time=00:00:01.26 bitrate=   4.0kbits/s speed=0.0696x elapsed=0:00:18.21    \nframe=   78 fps=4.2 q=30.0 size=       1KiB time=00:00:01.30 bitrate=   3.9kbits/s speed=0.0694x elapsed=0:00:18.73    \nframe=   81 fps=4.2 q=30.0 size=       1KiB time=00:00:01.35 bitrate=   3.8kbits/s speed=0.0701x elapsed=0:00:19.24    \nframe=   83 fps=4.2 q=30.0 size=       1KiB time=00:00:01.38 bitrate=   3.7kbits/s speed=0.0699x elapsed=0:00:19.78    \nframe=   85 fps=4.2 q=20.0 size=       1KiB time=00:00:01.41 bitrate=   3.6kbits/s speed=0.0697x elapsed=0:00:20.33    \nframe=   87 fps=4.2 q=29.0 size=       1KiB time=00:00:01.45 bitrate=   3.5kbits/s speed=0.0695x elapsed=0:00:20.86    \nframe=   90 fps=4.2 q=30.0 size=       1KiB time=00:00:01.50 bitrate=   3.4kbits/s speed=0.0701x elapsed=0:00:21.40    \nframe=   92 fps=4.2 q=29.0 size=       1KiB time=00:00:01.53 bitrate=   3.3kbits/s speed=0.0699x elapsed=0:00:21.94    \nframe=   94 fps=4.2 q=30.0 size=       1KiB time=00:00:01.56 bitrate=   3.2kbits/s speed=0.0697x elapsed=0:00:22.46    \nframe=   96 fps=4.2 q=30.0 size=       1KiB time=00:00:01.60 bitrate=   3.2kbits/s speed=0.0696x elapsed=0:00:22.98    \nframe=   98 fps=4.2 q=30.0 size=       1KiB time=00:00:01.63 bitrate=   3.1kbits/s speed=0.0695x elapsed=0:00:23.50    \nframe=  100 fps=4.2 q=30.0 size=       1KiB time=00:00:01.66 bitrate=   3.0kbits/s speed=0.0694x elapsed=0:00:24.01    \nframe=  102 fps=4.2 q=30.0 size=       1KiB time=00:00:01.70 bitrate=   3.0kbits/s speed=0.0693x elapsed=0:00:24.53    \nframe=  104 fps=4.1 q=29.0 size=       1KiB time=00:00:01.73 bitrate=   2.9kbits/s speed=0.0691x elapsed=0:00:25.08    \nframe=  107 fps=4.2 q=30.0 size=       1KiB time=00:00:01.78 bitrate=   2.8kbits/s speed=0.0696x elapsed=0:00:25.62    \nframe=  109 fps=4.2 q=20.0 size=       1KiB time=00:00:01.81 bitrate=   2.8kbits/s speed=0.0694x elapsed=0:00:26.15    \nframe=  111 fps=4.2 q=27.0 size=       1KiB time=00:00:01.85 bitrate=   2.7kbits/s speed=0.0693x elapsed=0:00:26.68    \nframe=  113 fps=4.2 q=28.0 size=       1KiB time=00:00:01.88 bitrate=   2.7kbits/s speed=0.0692x elapsed=0:00:27.21    \nframe=  115 fps=4.1 q=29.0 size=       1KiB time=00:00:01.91 bitrate=   2.6kbits/s speed=0.0691x elapsed=0:00:27.75    \nframe=  117 fps=4.1 q=30.0 size=       1KiB time=00:00:01.95 bitrate=   2.6kbits/s speed=0.0689x elapsed=0:00:28.31    \nframe=  120 fps=4.2 q=30.0 size=       1KiB time=00:00:01.98 bitrate=   2.6kbits/s speed=0.0688x elapsed=0:00:28.84    \nframe=  122 fps=4.2 q=30.0 size=       1KiB time=00:00:02.03 bitrate=   2.5kbits/s speed=0.0692x elapsed=0:00:29.38    \nframe=  124 fps=4.1 q=31.0 size=       1KiB time=00:00:02.06 bitrate=   2.5kbits/s speed=0.069x elapsed=0:00:29.94    \nframe=  126 fps=4.1 q=30.0 size=       1KiB time=00:00:02.10 bitrate=   2.4kbits/s speed=0.0689x elapsed=0:00:30.46    \nframe=  128 fps=4.1 q=30.0 size=       1KiB time=00:00:02.13 bitrate=   2.4kbits/s speed=0.0688x elapsed=0:00:31.00    \nframe=  130 fps=4.1 q=29.0 size=    3584KiB time=00:00:02.16 bitrate=13550.8kbits/s speed=0.0686x elapsed=0:00:31.56    \nframe=  132 fps=4.1 q=32.0 size=    3584KiB time=00:00:02.20 bitrate=13345.5kbits/s speed=0.0685x elapsed=0:00:32.11    \nframe=  134 fps=4.1 q=32.0 size=    3584KiB time=00:00:02.23 bitrate=13146.3kbits/s speed=0.0684x elapsed=0:00:32.65    \nframe=  136 fps=4.1 q=31.0 size=    3584KiB time=00:00:02.26 bitrate=12953.0kbits/s speed=0.0682x elapsed=0:00:33.21    \nframe=  138 fps=4.1 q=31.0 size=    3584KiB time=00:00:02.30 bitrate=12765.3kbits/s speed=0.0682x elapsed=0:00:33.74    \nframe=  140 fps=4.1 q=20.0 size=    3584KiB time=00:00:02.33 bitrate=12582.9kbits/s speed=0.0681x elapsed=0:00:34.26    \nframe=  142 fps=4.1 q=29.0 size=    3584KiB time=00:00:02.36 bitrate=12405.7kbits/s speed=0.068x elapsed=0:00:34.81    \nframe=  144 fps=4.1 q=29.0 size=    3584KiB time=00:00:02.40 bitrate=12233.4kbits/s speed=0.0679x elapsed=0:00:35.36    \nframe=  146 fps=4.1 q=29.0 size=    3584KiB time=00:00:02.43 bitrate=12065.8kbits/s speed=0.0678x elapsed=0:00:35.90    \nframe=  148 fps=4.1 q=30.0 size=    3584KiB time=00:00:02.46 bitrate=11902.8kbits/s speed=0.0677x elapsed=0:00:36.44    \nframe=  150 fps=4.1 q=30.0 size=    3584KiB time=00:00:02.50 bitrate=11744.1kbits/s speed=0.0676x elapsed=0:00:36.99    \nframe=  152 fps=4.0 q=20.0 size=    3584KiB time=00:00:02.53 bitrate=11589.5kbits/s speed=0.0675x elapsed=0:00:37.55    \nframe=  154 fps=4.0 q=29.0 size=    3584KiB time=00:00:02.56 bitrate=11439.0kbits/s speed=0.0674x elapsed=0:00:38.09    \nframe=  155 fps=4.0 q=30.0 size=    3584KiB time=00:00:02.58 bitrate=11365.2kbits/s speed=0.0669x elapsed=0:00:38.64    \nframe=  157 fps=4.0 q=30.0 size=    3584KiB time=00:00:02.61 bitrate=11220.4kbits/s speed=0.0668x elapsed=0:00:39.16    \nframe=  159 fps=4.0 q=29.0 size=    3584KiB time=00:00:02.65 bitrate=11079.3kbits/s speed=0.0667x elapsed=0:00:39.71    \nframe=  161 fps=4.0 q=29.0 size=    3584KiB time=00:00:02.68 bitrate=10941.7kbits/s speed=0.0667x elapsed=0:00:40.22    \nframe=  163 fps=4.0 q=31.0 size=    3584KiB time=00:00:02.71 bitrate=10807.4kbits/s speed=0.0667x elapsed=0:00:40.75    \nframe=  165 fps=4.0 q=30.0 size=    3584KiB time=00:00:02.75 bitrate=10676.4kbits/s speed=0.0666x elapsed=0:00:41.28    \nframe=  167 fps=4.0 q=30.0 size=    3584KiB time=00:00:02.78 bitrate=10548.6kbits/s speed=0.0665x elapsed=0:00:41.83    \nframe=  169 fps=4.0 q=30.0 size=    3584KiB time=00:00:02.81 bitrate=10423.7kbits/s speed=0.0665x elapsed=0:00:42.37    \nframe=  171 fps=4.0 q=29.0 size=    3584KiB time=00:00:02.85 bitrate=10301.8kbits/s speed=0.0664x elapsed=0:00:42.90    \nframe=  173 fps=4.0 q=29.0 size=    3584KiB time=00:00:02.88 bitrate=10182.7kbits/s speed=0.0664x elapsed=0:00:43.41    \nframe=  175 fps=4.0 q=30.0 size=    3584KiB time=00:00:02.91 bitrate=10066.3kbits/s speed=0.0664x elapsed=0:00:43.94    \nframe=  177 fps=4.0 q=29.0 size=    3584KiB time=00:00:02.95 bitrate=9952.6kbits/s speed=0.0663x elapsed=0:00:44.47    \nframe=  180 fps=4.0 q=29.0 size=    3584KiB time=00:00:03.00 bitrate=9786.7kbits/s speed=0.0667x elapsed=0:00:44.98    \nframe=  182 fps=4.0 q=29.0 size=    3584KiB time=00:00:03.03 bitrate=9679.2kbits/s speed=0.0666x elapsed=0:00:45.55    \nframe=  184 fps=4.0 q=31.0 size=    3584KiB time=00:00:03.06 bitrate=9574.0kbits/s speed=0.0665x elapsed=0:00:46.10    \nframe=  187 fps=4.0 q=30.0 size=    3584KiB time=00:00:03.11 bitrate=9420.4kbits/s speed=0.0668x elapsed=0:00:46.63    \nframe=  189 fps=4.0 q=30.0 size=    3584KiB time=00:00:03.15 bitrate=9320.7kbits/s speed=0.0668x elapsed=0:00:47.18    \nframe=  191 fps=4.0 q=30.0 size=    3584KiB time=00:00:03.18 bitrate=9223.1kbits/s speed=0.0667x elapsed=0:00:47.70    \nframe=  193 fps=4.0 q=30.0 size=    3584KiB time=00:00:03.21 bitrate=9127.5kbits/s speed=0.0666x elapsed=0:00:48.27    \nframe=  196 fps=4.0 q=30.0 size=    3584KiB time=00:00:03.26 bitrate=8987.8kbits/s speed=0.0669x elapsed=0:00:48.80    \nframe=  198 fps=4.0 q=30.0 size=    3584KiB time=00:00:03.30 bitrate=8897.0kbits/s speed=0.0669x elapsed=0:00:49.34    \nframe=  200 fps=4.0 q=30.0 size=    3584KiB time=00:00:03.33 bitrate=8808.0kbits/s speed=0.0668x elapsed=0:00:49.88    \nframe=  203 fps=4.0 q=30.0 size=    3584KiB time=00:00:03.38 bitrate=8677.9kbits/s speed=0.0671x elapsed=0:00:50.40    \nframe=  205 fps=4.0 q=30.0 size=    3584KiB time=00:00:03.41 bitrate=8593.2kbits/s speed=0.0671x elapsed=0:00:50.93    \nframe=  207 fps=4.0 q=29.0 size=    3584KiB time=00:00:03.45 bitrate=8510.2kbits/s speed=0.067x elapsed=0:00:51.46    \nframe=  210 fps=4.0 q=30.0 size=    3584KiB time=00:00:03.50 bitrate=8388.6kbits/s speed=0.0673x elapsed=0:00:51.97    \nframe=  212 fps=4.0 q=20.0 size=    3584KiB time=00:00:03.53 bitrate=8309.5kbits/s speed=0.0673x elapsed=0:00:52.53    \nframe=  214 fps=4.0 q=29.0 size=    3584KiB time=00:00:03.56 bitrate=8231.8kbits/s speed=0.0672x elapsed=0:00:53.06    \nframe=  216 fps=4.0 q=29.0 size=    3584KiB time=00:00:03.60 bitrate=8155.6kbits/s speed=0.0672x elapsed=0:00:53.59    \nframe=  219 fps=4.0 q=29.0 size=    3584KiB time=00:00:03.65 bitrate=8043.9kbits/s speed=0.0674x elapsed=0:00:54.11    \nframe=  221 fps=4.0 q=30.0 size=    3584KiB time=00:00:03.68 bitrate=7971.1kbits/s speed=0.0674x elapsed=0:00:54.65    \nframe=  223 fps=4.0 q=30.0 size=    3584KiB time=00:00:03.71 bitrate=7899.6kbits/s speed=0.0673x elapsed=0:00:55.21    \nframe=  226 fps=4.1 q=30.0 size=    3584KiB time=00:00:03.76 bitrate=7794.7kbits/s speed=0.0676x elapsed=0:00:55.75    \nframe=  228 fps=4.0 q=29.0 size=    3584KiB time=00:00:03.80 bitrate=7726.3kbits/s speed=0.0675x elapsed=0:00:56.30    \nframe=  230 fps=4.0 q=29.0 size=    3584KiB time=00:00:03.83 bitrate=7659.2kbits/s speed=0.0675x elapsed=0:00:56.82    \nframe=  232 fps=4.0 q=31.0 size=    3584KiB time=00:00:03.86 bitrate=7593.1kbits/s speed=0.0674x elapsed=0:00:57.34    \nframe=  235 fps=4.1 q=30.0 size=    3584KiB time=00:00:03.91 bitrate=7496.2kbits/s speed=0.0677x elapsed=0:00:57.87    \nframe=  237 fps=4.1 q=31.0 size=    3584KiB time=00:00:03.95 bitrate=7432.9kbits/s speed=0.0676x elapsed=0:00:58.41    \nframe=  239 fps=4.1 q=30.0 size=    3584KiB time=00:00:03.98 bitrate=7370.7kbits/s speed=0.0676x elapsed=0:00:58.95    \nframe=  241 fps=4.1 q=30.0 size=    3584KiB time=00:00:04.01 bitrate=7309.6kbits/s speed=0.0675x elapsed=0:00:59.46    \nframe=  244 fps=4.1 q=31.0 size=    3584KiB time=00:00:04.06 bitrate=7219.7kbits/s speed=0.0678x elapsed=0:00:59.99    \nframe=  246 fps=4.1 q=19.0 size=    3584KiB time=00:00:04.10 bitrate=7161.0kbits/s speed=0.0677x elapsed=0:01:00.55    \nframe=  248 fps=4.1 q=28.0 size=    3584KiB time=00:00:04.13 bitrate=7103.3kbits/s speed=0.0677x elapsed=0:01:01.07    \nframe=  251 fps=4.1 q=30.0 size=    3584KiB time=00:00:04.18 bitrate=7018.4kbits/s speed=0.0679x elapsed=0:01:01.60    \nframe=  253 fps=4.1 q=29.0 size=    3584KiB time=00:00:04.21 bitrate=6962.9kbits/s speed=0.0678x elapsed=0:01:02.16    \nframe=  255 fps=4.1 q=29.0 size=    3584KiB time=00:00:04.25 bitrate=6908.3kbits/s speed=0.0678x elapsed=0:01:02.70    \nframe=  257 fps=4.1 q=19.0 size=    3584KiB time=00:00:04.28 bitrate=6854.5kbits/s speed=0.0677x elapsed=0:01:03.24    \nframe=  260 fps=4.1 q=32.0 size=    7168KiB time=00:00:04.33 bitrate=13550.8kbits/s speed=0.068x elapsed=0:01:03.76    \nframe=  262 fps=4.1 q=31.0 size=    7168KiB time=00:00:04.36 bitrate=13447.4kbits/s speed=0.0679x elapsed=0:01:04.28    \nframe=  265 fps=4.1 q=30.0 size=    7168KiB time=00:00:04.41 bitrate=13295.2kbits/s speed=0.0682x elapsed=0:01:04.79    \nframe=  267 fps=4.1 q=30.0 size=    7168KiB time=00:00:04.45 bitrate=13195.6kbits/s speed=0.0681x elapsed=0:01:05.32    \nframe=  269 fps=4.1 q=20.0 size=    7168KiB time=00:00:04.48 bitrate=13097.5kbits/s speed=0.0681x elapsed=0:01:05.86    \nframe=  271 fps=4.1 q=28.0 size=    7168KiB time=00:00:04.51 bitrate=13000.8kbits/s speed=0.068x elapsed=0:01:06.39    \nframe=  274 fps=4.1 q=30.0 size=    7168KiB time=00:00:04.56 bitrate=12858.4kbits/s speed=0.0682x elapsed=0:01:06.91    \nframe=  276 fps=4.1 q=29.0 size=    7168KiB time=00:00:04.60 bitrate=12765.3kbits/s speed=0.0682x elapsed=0:01:07.43    \nframe=  276 fps=4.1 q=29.0 size=    7168KiB time=00:00:04.60 bitrate=12765.3kbits/s speed=0.0677x elapsed=0:01:07.97    \nframe=  276 fps=4.0 q=29.0 size=    7168KiB time=00:00:04.60 bitrate=12765.3kbits/s speed=0.0671x elapsed=0:01:08.51    \nframe=  276 fps=4.0 q=29.0 size=    7168KiB time=00:00:04.60 bitrate=12765.3kbits/s speed=0.0666x elapsed=0:01:09.04    \nframe=  276 fps=4.0 q=29.0 size=    7168KiB time=00:00:04.60 bitrate=12765.3kbits/s speed=0.0661x elapsed=0:01:09.58    \nframe=  276 fps=3.9 q=29.0 size=    7168KiB time=00:00:04.60 bitrate=12765.3kbits/s speed=0.0656x elapsed=0:01:10.10    \nframe=  276 fps=3.9 q=29.0 size=    7168KiB time=00:00:04.60 bitrate=12765.3kbits/s speed=0.0651x elapsed=0:01:10.64    \nframe=  276 fps=3.9 q=29.0 size=    7168KiB time=00:00:04.60 bitrate=12765.3kbits/s speed=0.0646x elapsed=0:01:11.19    \nframe=  276 fps=3.8 q=29.0 size=    7168KiB time=00:00:04.60 bitrate=12765.3kbits/s speed=0.0641x elapsed=0:01:11.71    \n[out#0/webm @ 00000159e5cf9480] video:8790KiB audio:0KiB subtitle:0KiB other streams:0KiB global headers:0KiB muxing overhead: 0.033197%\nframe=  300 fps=4.2 q=32.0 Lsize=    8793KiB time=00:00:05.00 bitrate=14406.1kbits/s speed=0.0692x elapsed=0:01:12.23    \n",
  "seconds": 72.7392086982727,
  "probe_out": {}
}